# xmcd
#
# Track frame offsets:
#	183
#	9830
#	22103
#	31083
#	45165
#	55728
#	67183
#	79078
#	88640
#	112835
#	155203
#	188383
#	238350
#
# Disc length: 3531 seconds
#
# Revision: 2
# Processed by: cddbd v1.4PL0 Copyright (c) Steve Scherf et al.
# Submitted via: MusicManager 7.0.3.0 
#
DISCID=970dc90d
DTITLE=Canned Heat - The Magic Collection
DYEAR=1900
DGENRE=Blues
TTITLE0=Big Road Blues
TTITLE1=I 've Got My Mojo Working
TTITLE2=Pretty Thing
TTITLE3=Louise
TTITLE4=Dimples
TTITLE5=Talk To Me Baby
TTITLE6=Straight Ahead
TTITLE7=Rollin' and Tumblin'
TTITLE8=I'd Rather Be A Devil
TTITLE9=It Hurts Me Too
TTITLE10=Bull Frog Blues
TTITLE11=Sweet Sixteen
TTITLE12=Dust My Broom
EXTD=ID3G:   0
EXTT0=
EXTT1=
EXTT2=
EXTT3=
EXTT4=
EXTT5=
EXTT6=
EXTT7=
EXTT8=
EXTT9=
EXTT10=
EXTT11=
EXTT12=
PLAYORDER=
